<svg xmlns="http://www.w3.org/2000/svg" xmlns:xlink="http://www.w3.org/1999/xlink" xmlns:inkscape="http://www.inkscape.org/namespaces/inkscape" version="1.1" width="1920" height="1080" viewBox="0 0 1920 1080">
<defs>
<clipPath id="clip_1">
<path transform="matrix(1,0,0,-1,0,1080)" d="M0 1080H1920V0H0Z"/>
</clipPath>
</defs>
<g inkscape:groupmode="layer" inkscape:label="Layer 1">
<g clip-path="url(#clip_1)">
<path transform="matrix(1,0,0,-1,898.7577,483.52668)" d="M0 0H-.381C-1.232 0-1.898-.659-1.898-1.5V-65.23C-1.898-66.072-1.232-66.731-.381-66.731H0C.85-66.731 1.516-66.072 1.516-65.23V-1.5C1.516-.659 .85 0 0 0" fill="#2a2829"/>
<path transform="matrix(1,0,0,-1,934.0521,514.4622)" d="M0 0V27.562H17.704C28.61 27.562 35.121 22.358 35.121 13.641 35.121 5.354 28.359 0 17.895 0ZM18.56-32.422H0V-3.374H19.702C30.832-3.374 37.215-8.515 37.215-17.48 37.215-26.417 29.718-32.422 18.56-32.422M28.554-1.249C34.937 1.522 38.535 6.825 38.535 13.641 38.535 24.309 30.553 30.936 17.704 30.936H-1.896C-2.748 30.936-3.414 30.276-3.414 29.435V-34.295C-3.414-35.137-2.748-35.796-1.896-35.796H18.56C31.554-35.796 40.629-28.264 40.629-17.48 40.629-9.294 36.369-3.617 28.554-1.249" fill="#2a2829"/>
<path transform="matrix(1,0,0,-1,990.1068,483.52668)" d="M0 0H-.381C-1.231 0-1.897-.659-1.897-1.5V-65.23C-1.897-66.072-1.231-66.731-.381-66.731H0C.85-66.731 1.516-66.072 1.516-65.23V-1.5C1.516-.659 .85 0 0 0" fill="#2a2829"/>
<path transform="matrix(1,0,0,-1,1062.1996,483.0218)" d="M0 0C-.193 .657-.789 1.098-1.482 1.098H-1.484C-2.178 1.097-2.772 .655-2.957 .022L-22.516-60.302-42.341 0C-42.546 .698-43.215 1.142-43.977 1.094-44.676 1.044-45.214 .572-45.325-.084L-59.309-65.471C-59.506-66.43-59.198-67.016-58.393-67.212L-57.692-67.38C-57.35-67.492-57.002-67.458-56.711-67.288-56.363-67.085-56.133-66.713-56.027-66.193L-43.464-7.771-23.992-67.368C-23.799-68.025-23.205-68.467-22.511-68.467H-22.51C-21.816-68.467-21.221-68.026-21.034-67.389L-1.916-7.761 11.1-66.183C11.208-66.713 11.438-67.085 11.786-67.288 12.078-67.459 12.427-67.491 12.707-67.398L13.467-67.212C14.273-67.016 14.582-66.43 14.382-65.459Z" fill="#2a2829"/>
<path transform="matrix(1,0,0,-1,1091.184,517.8358)" d="M0 0H19.702C30.832 0 37.215-5.142 37.215-14.106 37.215-23.044 29.718-29.049 18.56-29.049H0ZM0 3.374V30.936H17.703C28.61 30.936 35.121 25.731 35.121 17.015 35.121 8.728 28.359 3.374 17.895 3.374ZM28.553 2.125C34.937 4.896 38.535 10.198 38.535 17.015 38.535 27.682 30.553 34.309 17.703 34.309H-1.897C-2.748 34.309-3.414 33.65-3.414 32.809V-30.921C-3.414-31.763-2.748-32.422-1.897-32.422H18.56C31.554-32.422 40.629-24.891 40.629-14.106 40.629-5.921 36.369-.244 28.553 2.125" fill="#2a2829"/>
<path transform="matrix(1,0,0,-1,1147.2387,483.52668)" d="M0 0H-.381C-1.231 0-1.897-.659-1.897-1.5V-65.23C-1.897-66.072-1.231-66.731-.381-66.731H0C.85-66.731 1.516-66.072 1.516-65.23V-1.5C1.516-.659 .85 0 0 0" fill="#2a2829"/>
<path transform="matrix(1,0,0,-1,824.0878,538.8846)" d="M0 0C0 3.218 2.619 5.837 5.837 5.837 9.055 5.837 11.674 3.218 11.674 0 11.674-3.218 9.055-5.837 5.837-5.837 2.619-5.837 0-3.218 0 0M-26.828 0C-26.828 3.218-24.21 5.837-20.992 5.837-17.773 5.837-15.155 3.218-15.155 0-15.155-3.218-17.773-5.837-20.992-5.837-24.21-5.837-26.828-3.218-26.828 0M40.605 9.606C39.666 9.606 38.904 8.845 38.904 7.906V-47.821C38.904-48.587 38.281-49.21 37.515-49.21H17.92C17.401-49.21 16.929-48.924 16.688-48.464L7.538-30.948V-15.268L14.589-27.035C14.908-27.567 15.471-27.862 16.049-27.862 16.347-27.862 16.648-27.784 16.922-27.62 17.728-27.137 17.99-26.093 17.507-25.287L7.766-9.032C11.937-8.142 15.075-4.432 15.075 0 15.075 5.094 10.931 9.238 5.837 9.238 .743 9.238-3.401 5.094-3.401 0-3.401-4.414-.288-8.11 3.858-9.019L-6.469-24.424C-6.734-24.773-7.138-24.974-7.576-24.974-8.015-24.974-8.418-24.774-8.625-24.505L-19.012-9.019C-14.867-8.11-11.753-4.414-11.753 0-11.753 5.094-15.897 9.238-20.992 9.238-26.085 9.238-30.229 5.094-30.229 0-30.229-4.432-27.091-8.142-22.921-9.032L-32.662-25.287C-33.145-26.093-32.883-27.137-32.077-27.62-31.803-27.784-31.502-27.862-31.204-27.862-30.626-27.862-30.062-27.567-29.744-27.035L-22.692-15.268V-30.948L-31.843-48.463C-32.083-48.924-32.556-49.21-33.075-49.21H-52.629C-53.396-49.21-54.019-48.587-54.019-47.821V7.906C-54.019 8.845-54.78 9.606-55.72 9.606-56.659 9.606-57.42 8.845-57.42 7.906V-47.821C-57.42-50.462-55.271-52.612-52.629-52.612H-33.075C-31.285-52.612-29.658-51.626-28.828-50.039L-21.076-35.2-13.448-51.51C-13.159-52.127-12.546-52.49-11.906-52.49-11.665-52.49-11.419-52.438-11.187-52.33-10.336-51.932-9.969-50.919-10.367-50.068L-19.291-30.987V-14.709L-11.393-26.481C-10.479-27.685-9.088-28.376-7.576-28.375-6.064-28.375-4.673-27.685-3.702-26.399L4.136-14.711V-30.987L-4.788-50.068C-5.186-50.919-4.819-51.932-3.968-52.33-3.735-52.438-3.49-52.49-3.249-52.49-2.609-52.49-1.996-52.127-1.707-51.51L5.921-35.199 13.674-50.039C14.502-51.626 16.129-52.612 17.92-52.612H37.515C40.156-52.612 42.306-50.462 42.306-47.821V7.906C42.306 8.845 41.544 9.606 40.605 9.606" fill="#2a2829"/>
<path transform="matrix(1,0,0,-1,872.579,525.4315)" d="M0 0-53.184 41.765C-54.871 43.09-57.226 43.09-58.913 41.765L-112.097 0C-112.836-.58-112.965-1.649-112.384-2.388-111.804-3.126-110.736-3.254-109.997-2.675L-56.812 39.09C-56.362 39.442-55.736 39.443-55.285 39.089L-2.101-2.675C-1.789-2.92-1.419-3.038-1.051-3.038-.547-3.038-.048-2.815 .288-2.388 .868-1.649 .739-.58 0 0" fill="#2a2829"/>
<path transform="matrix(1,0,0,-1,907.3065,577.88076)" d="M0 0C0 .368 .298 .666 .666 .666H12.955V.392C12.955-2.778 11.819-7.592 8.924-10.606 6.027-13.619 2.7-14.167-.392-14.167-3.522-14.167-6.889-13.658-9.941-10.528-11.468-8.962-13.777-5.791-13.777-.586-13.777 3.68-12.212 7.085-10.02 9.316-6.811 12.642-2.857 13.112 .234 13.112 2.388 13.112 5.127 12.761 7.554 11.155 9.095 10.128 10.457 8.59 11.402 7.12 11.615 6.79 11.508 6.351 11.163 6.165L6.921 3.876C6.613 3.71 6.222 3.805 6.043 4.105 5.546 4.945 4.868 5.769 4.031 6.381 2.856 7.242 1.526 7.633 .039 7.633-2.349 7.633-4.109 6.85-5.362 5.519-6.811 3.993-7.593 1.763-7.593-.664-7.593-3.639-6.497-5.557-5.401-6.653-3.875-8.218-2.113-8.688-.117-8.688 2.466-8.688 3.835-7.787 4.423-7.279 4.618-7.122 5.792-6.105 6.301-4.187H.666C.298-4.187 0-3.889 0-3.521Z" fill="#818282"/>
<path transform="matrix(1,0,0,-1,948.3964,580.8154)" d="M0 0C0-2.505-.313-5.597-2.896-8.258-5.401-10.841-8.298-11.232-11.037-11.232-13.777-11.232-16.674-10.841-19.179-8.258-21.762-5.597-22.074-2.505-22.074 0V14.794C-22.074 15.162-21.776 15.46-21.408 15.46H-16.713C-16.345 15.46-16.047 15.162-16.047 14.794V.157C-16.047-.979-15.969-2.896-14.678-4.227-13.62-5.361-12.173-5.597-11.037-5.597-9.902-5.597-8.454-5.361-7.397-4.227-6.105-2.896-6.027-.979-6.027 .157V14.794C-6.027 15.162-5.729 15.46-5.362 15.46H-.666C-.298 15.46 0 15.162 0 14.794Z" fill="#818282"/>
<path transform="matrix(1,0,0,-1,969.7598,570.44338)" d="M0 0H-8.062V-5.049H-.431C-.063-5.049 .235-5.347 .235-5.715V-9.471C.235-9.839-.063-10.137-.431-10.137H-8.062V-15.93H0C.368-15.93 .666-16.228 .666-16.596V-20.352C.666-20.719 .368-21.018 0-21.018H-13.423C-13.791-21.018-14.089-20.719-14.089-20.352V4.422C-14.089 4.79-13.791 5.088-13.423 5.088H0C.368 5.088 .666 4.79 .666 4.422V.666C.666 .298 .368 0 0 0" fill="#818282"/>
<path transform="matrix(1,0,0,-1,990.7445,571.0845)" d="M0 0C-.204-.331-.653-.421-.961-.184-2.675 1.132-4.114 1.228-4.785 1.228-5.607 1.228-6.625 1.111-7.329 .328-7.72-.063-7.995-.651-7.995-1.316-7.995-1.942-7.798-2.412-7.407-2.764-6.781-3.351-5.88-3.585-4.12-4.251L-2.163-4.995C-1.028-5.425 .381-6.012 1.399-6.991 2.925-8.439 3.317-10.318 3.317-11.844 3.317-14.544 2.377-16.893 1.007-18.302-1.301-20.729-4.667-20.963-6.389-20.963-8.268-20.963-9.912-20.69-11.556-19.868-12.703-19.294-13.995-18.313-14.957-17.426-15.208-17.195-15.25-16.816-15.049-16.54L-12.706-13.319C-12.472-12.997-12.014-12.951-11.72-13.219-11.105-13.778-10.368-14.375-9.833-14.702-8.816-15.328-7.759-15.641-6.546-15.641-5.763-15.641-4.667-15.484-3.806-14.741-3.297-14.31-2.867-13.605-2.867-12.627-2.867-11.766-3.219-11.218-3.767-10.749-4.472-10.162-6.077-9.574-6.82-9.3L-8.973-8.556C-10.186-8.126-11.595-7.578-12.613-6.482-13.983-5.034-14.178-3.195-14.178-1.942-14.178 .367-13.474 2.324-11.908 3.929-10.069 5.807-7.876 6.316-5.451 6.316-3.751 6.316-1.076 6.038 1.785 4.098 2.077 3.9 2.155 3.499 1.97 3.199Z" fill="#818282"/>
<path transform="matrix(1,0,0,-1,1009.1249,570.44338)" d="M0 0V-20.352C0-20.719-.298-21.018-.666-21.018H-5.362C-5.729-21.018-6.027-20.719-6.027-20.352V0H-11.036C-11.404 0-11.702 .298-11.702 .666V4.422C-11.702 4.79-11.404 5.088-11.036 5.088H5.009C5.377 5.088 5.675 4.79 5.675 4.422V.666C5.675 .298 5.377 0 5.009 0Z" fill="#818282"/>
<path transform="matrix(1,0,0,-1,1025.5595,575.2969)" d="M0 0H10.411V9.276C10.411 9.643 10.709 9.941 11.077 9.941H15.773C16.14 9.941 16.438 9.643 16.438 9.276V-15.498C16.438-15.866 16.14-16.164 15.773-16.164H11.077C10.709-16.164 10.411-15.866 10.411-15.498V-5.088H0V-15.498C0-15.866-.298-16.164-.666-16.164H-5.362C-5.729-16.164-6.027-15.866-6.027-15.498V9.276C-6.027 9.643-5.729 9.941-5.362 9.941H-.666C-.298 9.941 0 9.643 0 9.276Z" fill="#818282"/>
<path transform="matrix(1,0,0,-1,1056.5516,572.55667)" d="M0 0C-1.135-1.096-2.309-3.014-2.309-5.91-2.309-8.298-1.526-10.216 .078-11.781 1.762-13.386 3.641-13.934 5.676-13.934 8.337-13.934 10.216-12.955 11.468-11.703 12.485-10.725 13.738-8.885 13.738-5.871 13.738-3.171 12.642-1.175 11.468 0 10.177 1.252 8.102 2.23 5.715 2.23 3.444 2.23 1.409 1.409 0 0M15.852 3.992C18.317 1.604 19.922-1.84 19.922-5.871 19.922-9.354 18.67-12.916 15.852-15.656 13.425-18.004 10.137-19.491 5.754-19.491 .861-19.491-2.466-17.534-4.423-15.656-6.928-13.308-8.493-9.785-8.493-5.949-8.493-2.192-6.81 1.604-4.462 3.953-2.7 5.714 .548 7.788 5.754 7.788 9.824 7.788 13.229 6.536 15.852 3.992" fill="#818282"/>
<path transform="matrix(1,0,0,-1,1104.6083,580.8154)" d="M0 0C0-2.505-.313-5.597-2.896-8.258-5.401-10.841-8.298-11.232-11.037-11.232-13.777-11.232-16.674-10.841-19.179-8.258-21.762-5.597-22.074-2.505-22.074 0V14.794C-22.074 15.162-21.776 15.46-21.408 15.46H-16.713C-16.345 15.46-16.047 15.162-16.047 14.794V.157C-16.047-.979-15.969-2.896-14.678-4.227-13.62-5.361-12.173-5.597-11.037-5.597-9.902-5.597-8.454-5.361-7.397-4.227-6.105-2.896-6.027-.979-6.027 .157V14.794C-6.027 15.162-5.729 15.46-5.362 15.46H-.666C-.298 15.46 0 15.162 0 14.794Z" fill="#818282"/>
<path transform="matrix(1,0,0,-1,1125.7465,571.0845)" d="M0 0C-.204-.331-.653-.421-.961-.184-2.675 1.132-4.114 1.228-4.785 1.228-5.607 1.228-6.625 1.111-7.329 .328-7.72-.063-7.995-.651-7.995-1.316-7.995-1.942-7.798-2.412-7.407-2.764-6.781-3.351-5.88-3.585-4.12-4.251L-2.163-4.995C-1.028-5.425 .381-6.012 1.399-6.991 2.925-8.439 3.317-10.318 3.317-11.844 3.317-14.544 2.377-16.893 1.007-18.302-1.301-20.729-4.667-20.963-6.389-20.963-8.268-20.963-9.912-20.69-11.556-19.868-12.703-19.294-13.995-18.313-14.957-17.426-15.208-17.195-15.25-16.816-15.049-16.54L-12.706-13.319C-12.472-12.997-12.015-12.951-11.72-13.219-11.105-13.778-10.368-14.375-9.833-14.702-8.816-15.328-7.759-15.641-6.546-15.641-5.763-15.641-4.667-15.484-3.806-14.741-3.297-14.31-2.867-13.605-2.867-12.627-2.867-11.766-3.219-11.218-3.767-10.749-4.472-10.162-6.077-9.574-6.82-9.3L-8.973-8.556C-10.186-8.126-11.595-7.578-12.613-6.482-13.983-5.034-14.178-3.195-14.178-1.942-14.178 .367-13.474 2.324-11.908 3.929-10.069 5.807-7.876 6.316-5.451 6.316-3.751 6.316-1.076 6.038 1.785 4.098 2.077 3.9 2.155 3.499 1.97 3.199Z" fill="#818282"/>
<path transform="matrix(1,0,0,-1,1149.0586,570.44338)" d="M0 0H-8.062V-5.049H-.431C-.063-5.049 .235-5.347 .235-5.715V-9.471C.235-9.839-.063-10.137-.431-10.137H-8.062V-15.93H0C.368-15.93 .666-16.228 .666-16.596V-20.352C.666-20.719 .368-21.018 0-21.018H-13.423C-13.791-21.018-14.089-20.719-14.089-20.352V4.422C-14.089 4.79-13.791 5.088-13.423 5.088H0C.368 5.088 .666 4.79 .666 4.422V.666C.666 .298 .368 0 0 0" fill="#818282"/>
</g>
</g>
</svg>
