<svg xmlns="http://www.w3.org/2000/svg" xmlns:xlink="http://www.w3.org/1999/xlink" width="390" zoomAndPan="magnify" viewBox="0 0 292.5 82.499998" height="110" preserveAspectRatio="xMidYMid meet" version="1.2"><defs><clipPath id="5cbe33e64b"><path d="M 195 63 L 217 63 L 217 82.003906 L 195 82.003906 Z M 195 63 "/></clipPath><clipPath id="db035818ab"><path d="M 279 63 L 291.371094 63 L 291.371094 82 L 279 82 Z M 279 63 "/></clipPath><clipPath id="80ce6a39c5"><path d="M 0.632812 0 L 86 0 L 86 35 L 0.632812 35 Z M 0.632812 0 "/></clipPath></defs><g id="50d238bac4"><path style=" stroke:none;fill-rule:nonzero;fill:#43754a;fill-opacity:1;" d="M 104.195312 1.195312 L 103.910156 1.195312 C 103.277344 1.195312 102.777344 1.6875 102.777344 2.316406 L 102.777344 49.933594 C 102.777344 50.5625 103.277344 51.054688 103.910156 51.054688 L 104.195312 51.054688 C 104.832031 51.054688 105.332031 50.5625 105.332031 49.933594 L 105.332031 2.316406 C 105.332031 1.6875 104.832031 1.195312 104.195312 1.195312 Z M 104.195312 1.195312 "/><path style=" stroke:none;fill-rule:nonzero;fill:#43754a;fill-opacity:1;" d="M 151.894531 25.246094 C 156.664062 23.175781 159.351562 19.21875 159.351562 14.121094 C 159.351562 6.148438 153.390625 1.203125 143.789062 1.203125 L 129.144531 1.203125 C 128.507812 1.203125 128.007812 1.695312 128.007812 2.324219 L 128.007812 49.941406 C 128.007812 50.570312 128.507812 51.0625 129.144531 51.0625 L 144.429688 51.0625 C 154.136719 51.0625 160.921875 45.4375 160.921875 37.375 C 160.921875 31.253906 157.738281 27.019531 151.894531 25.246094 Z M 144.429688 48.535156 L 130.5625 48.535156 L 130.5625 26.832031 L 145.28125 26.832031 C 153.597656 26.832031 158.367188 30.671875 158.367188 37.375 C 158.367188 44.074219 152.761719 48.535156 144.421875 48.535156 Z M 130.5625 24.3125 L 130.5625 3.722656 L 143.789062 3.722656 C 151.941406 3.722656 156.804688 7.605469 156.804688 14.121094 C 156.804688 20.636719 151.753906 24.3125 143.929688 24.3125 Z M 130.5625 24.3125 "/><path style=" stroke:none;fill-rule:nonzero;fill:#43754a;fill-opacity:1;" d="M 172.449219 1.195312 L 172.167969 1.195312 C 171.53125 1.195312 171.03125 1.6875 171.03125 2.316406 L 171.03125 49.933594 C 171.03125 50.5625 171.53125 51.054688 172.167969 51.054688 L 172.449219 51.054688 C 173.085938 51.054688 173.585938 50.5625 173.585938 49.933594 L 173.585938 2.316406 C 173.585938 1.6875 173.085938 1.195312 172.449219 1.195312 Z M 172.449219 1.195312 "/><path style=" stroke:none;fill-rule:nonzero;fill:#43754a;fill-opacity:1;" d="M 226.316406 0.820312 C 226.171875 0.328125 225.722656 0 225.207031 0 C 224.691406 0 224.246094 0.328125 224.109375 0.808594 L 209.496094 45.875 L 194.679688 0.820312 C 194.523438 0.300781 194.027344 -0.03125 193.453125 0.0078125 C 192.929688 0.0429688 192.527344 0.394531 192.445312 0.890625 L 182 49.746094 C 181.851562 50.464844 182.082031 50.898438 182.6875 51.046875 L 183.210938 51.175781 C 183.464844 51.257812 183.726562 51.234375 183.941406 51.105469 C 184.203125 50.957031 184.375 50.679688 184.449219 50.285156 L 193.835938 6.636719 L 208.382812 51.167969 C 208.523438 51.660156 208.972656 51.988281 209.488281 51.988281 C 210.003906 51.988281 210.453125 51.660156 210.59375 51.183594 L 224.878906 6.628906 L 234.609375 50.277344 C 234.691406 50.671875 234.863281 50.949219 235.125 51.101562 C 235.339844 51.226562 235.601562 51.25 235.8125 51.183594 L 236.378906 51.039062 C 236.984375 50.890625 237.207031 50.457031 237.066406 49.730469 Z M 226.316406 0.820312 "/><path style=" stroke:none;fill-rule:nonzero;fill:#43754a;fill-opacity:1;" d="M 269.308594 25.246094 C 274.074219 23.175781 276.765625 19.21875 276.765625 14.121094 C 276.765625 6.148438 270.800781 1.203125 261.199219 1.203125 L 246.554688 1.203125 C 245.921875 1.203125 245.421875 1.695312 245.421875 2.324219 L 245.421875 49.941406 C 245.421875 50.570312 245.921875 51.0625 246.554688 51.0625 L 261.84375 51.0625 C 271.550781 51.0625 278.332031 45.4375 278.332031 37.375 C 278.332031 31.253906 275.148438 27.019531 269.308594 25.246094 Z M 247.96875 24.3125 L 247.96875 3.722656 L 261.191406 3.722656 C 269.34375 3.722656 274.207031 7.605469 274.207031 14.121094 C 274.207031 20.636719 269.15625 24.3125 261.335938 24.3125 Z M 247.96875 26.832031 L 262.6875 26.832031 C 271.003906 26.832031 275.769531 30.671875 275.769531 37.375 C 275.769531 44.074219 270.167969 48.535156 261.828125 48.535156 L 247.960938 48.535156 L 247.960938 26.832031 Z M 247.96875 26.832031 "/><path style=" stroke:none;fill-rule:nonzero;fill:#43754a;fill-opacity:1;" d="M 289.855469 1.195312 L 289.570312 1.195312 C 288.9375 1.195312 288.433594 1.6875 288.433594 2.316406 L 288.433594 49.933594 C 288.433594 50.5625 288.9375 51.054688 289.570312 51.054688 L 289.855469 51.054688 C 290.488281 51.054688 290.992188 50.5625 290.992188 49.933594 L 290.992188 2.316406 C 290.992188 1.6875 290.488281 1.195312 289.855469 1.195312 Z M 289.855469 1.195312 "/><path style=" stroke:none;fill-rule:nonzero;fill:#7ba774;fill-opacity:1;" d="M 101.511719 81.054688 L 109.730469 63.382812 C 109.8125 63.226562 109.992188 63.09375 110.179688 63.09375 L 110.441406 63.09375 C 110.628906 63.09375 110.808594 63.226562 110.890625 63.382812 L 119.109375 81.054688 C 119.265625 81.398438 119.058594 81.734375 118.660156 81.734375 L 115.746094 81.734375 C 115.277344 81.734375 115.066406 81.578125 114.828125 81.078125 L 113.886719 79 L 106.742188 79 L 105.800781 81.097656 C 105.667969 81.414062 105.382812 81.726562 104.851562 81.726562 L 101.960938 81.726562 C 101.566406 81.726562 101.355469 81.382812 101.511719 81.046875 Z M 112.300781 75.433594 L 110.308594 71.101562 L 110.277344 71.101562 L 108.304688 75.433594 Z M 112.300781 75.433594 "/><path style=" stroke:none;fill-rule:nonzero;fill:#7ba774;fill-opacity:1;" d="M 124.078125 63.855469 C 124.078125 63.59375 124.289062 63.351562 124.578125 63.351562 L 130.90625 63.351562 C 134.136719 63.351562 136.789062 65.976562 136.789062 69.160156 C 136.789062 72.34375 134.136719 75.070312 130.929688 75.070312 L 128.171875 75.070312 L 128.171875 81.242188 C 128.171875 81.503906 127.933594 81.742188 127.671875 81.742188 L 124.570312 81.742188 C 124.28125 81.742188 124.070312 81.503906 124.070312 81.242188 L 124.070312 63.863281 Z M 130.667969 71.234375 C 131.796875 71.234375 132.746094 70.347656 132.746094 69.160156 C 132.746094 68.054688 131.804688 67.214844 130.667969 67.214844 L 128.171875 67.214844 L 128.171875 71.234375 Z M 130.667969 71.234375 "/><path style=" stroke:none;fill-rule:nonzero;fill:#7ba774;fill-opacity:1;" d="M 138.589844 81.054688 L 146.808594 63.382812 C 146.890625 63.226562 147.070312 63.09375 147.253906 63.09375 L 147.515625 63.09375 C 147.703125 63.09375 147.882812 63.226562 147.964844 63.382812 L 156.183594 81.054688 C 156.339844 81.398438 156.132812 81.734375 155.734375 81.734375 L 152.820312 81.734375 C 152.351562 81.734375 152.140625 81.578125 151.902344 81.078125 L 150.960938 79 L 143.820312 79 L 142.878906 81.097656 C 142.742188 81.414062 142.457031 81.726562 141.929688 81.726562 L 139.035156 81.726562 C 138.640625 81.726562 138.429688 81.382812 138.589844 81.046875 Z M 149.378906 75.433594 L 147.382812 71.101562 L 147.351562 71.101562 L 145.378906 75.433594 Z M 149.378906 75.433594 "/><path style=" stroke:none;fill-rule:nonzero;fill:#7ba774;fill-opacity:1;" d="M 161.160156 63.855469 C 161.160156 63.59375 161.371094 63.351562 161.660156 63.351562 L 169.515625 63.351562 C 172.667969 63.351562 175.238281 65.902344 175.238281 69.023438 C 175.238281 71.4375 173.636719 73.378906 171.351562 74.300781 L 174.945312 80.972656 C 175.132812 81.316406 174.945312 81.734375 174.496094 81.734375 L 171.007812 81.734375 C 170.800781 81.734375 170.640625 81.597656 170.589844 81.496094 L 167.101562 74.539062 L 165.292969 74.539062 L 165.292969 81.234375 C 165.292969 81.496094 165.054688 81.734375 164.792969 81.734375 L 161.667969 81.734375 C 161.378906 81.734375 161.167969 81.496094 161.167969 81.234375 L 161.167969 63.855469 Z M 169.164062 71.207031 C 170.238281 71.207031 171.15625 70.203125 171.15625 69.105469 C 171.15625 68.007812 170.238281 67.113281 169.164062 67.113281 L 165.277344 67.113281 L 165.277344 71.207031 Z M 169.164062 71.207031 "/><path style=" stroke:none;fill-rule:nonzero;fill:#7ba774;fill-opacity:1;" d="M 184.046875 67.214844 L 180.289062 67.214844 C 179.996094 67.214844 179.789062 66.976562 179.789062 66.714844 L 179.789062 63.855469 C 179.789062 63.59375 179.996094 63.351562 180.289062 63.351562 L 191.945312 63.351562 C 192.234375 63.351562 192.445312 63.59375 192.445312 63.855469 L 192.445312 66.714844 C 192.445312 66.976562 192.234375 67.214844 191.945312 67.214844 L 188.1875 67.214844 L 188.1875 81.242188 C 188.1875 81.503906 187.945312 81.742188 187.683594 81.742188 L 184.53125 81.742188 C 184.269531 81.742188 184.03125 81.503906 184.03125 81.242188 L 184.03125 67.214844 Z M 184.046875 67.214844 "/><g clip-rule="nonzero" clip-path="url(#5cbe33e64b)"><path style=" stroke:none;fill-rule:nonzero;fill:#7ba774;fill-opacity:1;" d="M 198.796875 63.519531 C 198.824219 63.277344 199.058594 63.097656 199.265625 63.097656 L 199.683594 63.097656 C 199.820312 63.097656 200.050781 63.203125 200.132812 63.359375 L 206.222656 74.703125 L 206.273438 74.703125 L 212.363281 63.359375 C 212.441406 63.203125 212.679688 63.097656 212.8125 63.097656 L 213.230469 63.097656 C 213.441406 63.097656 213.679688 63.285156 213.703125 63.519531 L 216.667969 81.160156 C 216.722656 81.503906 216.480469 81.734375 216.167969 81.734375 L 213.066406 81.734375 C 212.828125 81.734375 212.597656 81.523438 212.566406 81.316406 L 211.386719 73.203125 L 211.332031 73.203125 L 206.925781 81.710938 C 206.84375 81.867188 206.613281 82.003906 206.476562 82.003906 L 206.007812 82.003906 C 205.847656 82.003906 205.640625 81.867188 205.558594 81.710938 L 201.121094 73.203125 L 201.066406 73.203125 L 199.910156 81.316406 C 199.878906 81.523438 199.671875 81.734375 199.410156 81.734375 L 196.308594 81.734375 C 195.992188 81.734375 195.753906 81.496094 195.808594 81.160156 L 198.773438 63.519531 Z M 198.796875 63.519531 "/></g><path style=" stroke:none;fill-rule:nonzero;fill:#7ba774;fill-opacity:1;" d="M 222.734375 63.855469 C 222.734375 63.59375 222.945312 63.351562 223.234375 63.351562 L 234.109375 63.351562 C 234.398438 63.351562 234.609375 63.59375 234.609375 63.855469 L 234.609375 66.714844 C 234.609375 66.976562 234.398438 67.214844 234.109375 67.214844 L 226.835938 67.214844 L 226.835938 70.472656 L 232.824219 70.472656 C 233.085938 70.472656 233.324219 70.714844 233.324219 70.976562 L 233.324219 73.835938 C 233.324219 74.128906 233.085938 74.335938 232.824219 74.335938 L 226.835938 74.335938 L 226.835938 77.878906 L 234.109375 77.878906 C 234.398438 77.878906 234.609375 78.117188 234.609375 78.378906 L 234.609375 81.242188 C 234.609375 81.503906 234.398438 81.742188 234.109375 81.742188 L 223.234375 81.742188 C 222.945312 81.742188 222.734375 81.503906 222.734375 81.242188 Z M 222.734375 63.855469 "/><path style=" stroke:none;fill-rule:nonzero;fill:#7ba774;fill-opacity:1;" d="M 241.054688 63.570312 C 241.054688 63.308594 241.296875 63.097656 241.558594 63.097656 L 242.214844 63.097656 L 252.691406 73.179688 L 252.71875 73.179688 L 252.71875 63.855469 C 252.71875 63.59375 252.929688 63.351562 253.21875 63.351562 L 256.375 63.351562 C 256.636719 63.351562 256.875 63.59375 256.875 63.855469 L 256.875 81.523438 C 256.875 81.785156 256.636719 81.996094 256.375 81.996094 L 255.957031 81.996094 C 255.875 81.996094 255.664062 81.914062 255.613281 81.859375 L 245.242188 71.4375 L 245.210938 71.4375 L 245.210938 81.234375 C 245.210938 81.496094 245 81.734375 244.710938 81.734375 L 241.585938 81.734375 C 241.324219 81.734375 241.085938 81.496094 241.085938 81.234375 L 241.054688 63.5625 Z M 241.054688 63.570312 "/><path style=" stroke:none;fill-rule:nonzero;fill:#7ba774;fill-opacity:1;" d="M 266.296875 67.214844 L 262.539062 67.214844 C 262.246094 67.214844 262.039062 66.976562 262.039062 66.714844 L 262.039062 63.855469 C 262.039062 63.59375 262.246094 63.351562 262.539062 63.351562 L 274.195312 63.351562 C 274.484375 63.351562 274.695312 63.59375 274.695312 63.855469 L 274.695312 66.714844 C 274.695312 66.976562 274.484375 67.214844 274.195312 67.214844 L 270.4375 67.214844 L 270.4375 81.242188 C 270.4375 81.503906 270.195312 81.742188 269.933594 81.742188 L 266.78125 81.742188 C 266.519531 81.742188 266.28125 81.503906 266.28125 81.242188 L 266.28125 67.214844 Z M 266.296875 67.214844 "/><g clip-rule="nonzero" clip-path="url(#db035818ab)"><path style=" stroke:none;fill-rule:nonzero;fill:#7ba774;fill-opacity:1;" d="M 279.371094 79.246094 L 280.605469 77.0625 C 280.8125 76.71875 281.316406 76.773438 281.492188 76.90625 C 281.597656 76.960938 283.488281 78.347656 285.222656 78.347656 C 286.277344 78.347656 287.03125 77.691406 287.03125 76.773438 C 287.03125 75.667969 286.113281 74.828125 284.324219 74.121094 C 282.070312 73.230469 279.230469 71.46875 279.230469 68.316406 C 279.230469 65.714844 281.253906 63.09375 285.296875 63.09375 C 288.023438 63.09375 290.132812 64.480469 290.914062 65.0625 C 291.230469 65.25 291.175781 65.722656 291.074219 65.902344 L 289.734375 67.925781 C 289.546875 68.21875 289.078125 68.449219 288.847656 68.269531 C 288.605469 68.136719 286.695312 66.691406 285.085938 66.691406 C 284.140625 66.691406 283.4375 67.320312 283.4375 68.03125 C 283.4375 69.003906 284.222656 69.734375 286.296875 70.578125 C 288.34375 71.394531 291.601562 72.992188 291.601562 76.5625 C 291.601562 79.269531 289.265625 81.996094 285.410156 81.996094 C 281.996094 81.996094 280.105469 80.574219 279.5 79.96875 C 279.238281 79.710938 279.15625 79.605469 279.363281 79.238281 Z M 279.371094 79.246094 "/></g><path style=" stroke:none;fill-rule:nonzero;fill:#43754a;fill-opacity:1;" d="M 78.738281 35.378906 C 78.035156 35.378906 77.46875 35.945312 77.46875 36.648438 L 77.46875 78.289062 C 77.46875 78.863281 77.003906 79.328125 76.429688 79.328125 L 61.792969 79.328125 C 61.40625 79.328125 61.054688 79.113281 60.875 78.769531 L 54.039062 65.675781 L 54.039062 53.960938 L 59.304688 62.753906 C 59.542969 63.152344 59.960938 63.375 60.394531 63.375 C 60.621094 63.375 60.84375 63.316406 61.046875 63.195312 C 61.652344 62.835938 61.84375 62.054688 61.480469 61.457031 L 54.203125 49.3125 C 57.316406 48.648438 59.664062 45.875 59.664062 42.566406 C 59.664062 38.765625 56.570312 35.664062 52.757812 35.664062 C 48.949219 35.664062 45.855469 38.757812 45.855469 42.566406 C 45.855469 45.863281 48.179688 48.625 51.28125 49.304688 L 43.5625 60.8125 C 43.359375 61.074219 43.0625 61.222656 42.734375 61.222656 C 42.402344 61.222656 42.105469 61.074219 41.949219 60.871094 L 34.183594 49.300781 C 37.285156 48.617188 39.609375 45.855469 39.609375 42.558594 C 39.609375 38.757812 36.515625 35.65625 32.707031 35.65625 C 28.894531 35.65625 25.800781 38.75 25.800781 42.558594 C 25.800781 45.871094 28.148438 48.640625 31.261719 49.304688 L 23.984375 61.449219 C 23.628906 62.054688 23.820312 62.832031 24.417969 63.1875 C 24.621094 63.308594 24.84375 63.367188 25.070312 63.367188 C 25.503906 63.367188 25.921875 63.152344 26.160156 62.75 L 31.425781 53.953125 L 31.425781 65.667969 L 24.589844 78.761719 C 24.410156 79.105469 24.058594 79.320312 23.671875 79.320312 L 9.078125 79.320312 C 8.503906 79.320312 8.039062 78.855469 8.039062 78.28125 L 8.039062 36.640625 C 8.039062 35.9375 7.472656 35.371094 6.769531 35.371094 C 6.070312 35.371094 5.5 35.9375 5.5 36.640625 L 5.5 78.28125 C 5.5 80.253906 7.105469 81.859375 9.078125 81.859375 L 23.6875 81.859375 C 25.023438 81.859375 26.242188 81.121094 26.863281 79.941406 L 32.652344 68.851562 L 38.355469 81.039062 C 38.570312 81.503906 39.027344 81.769531 39.503906 81.769531 C 39.683594 81.769531 39.871094 81.734375 40.042969 81.652344 C 40.679688 81.351562 40.953125 80.597656 40.65625 79.964844 L 33.992188 65.707031 L 33.992188 53.542969 L 39.894531 62.335938 C 40.574219 63.234375 41.621094 63.757812 42.746094 63.75 C 43.875 63.75 44.914062 63.234375 45.640625 62.269531 L 51.496094 53.535156 L 51.496094 65.699219 L 44.832031 79.957031 C 44.53125 80.589844 44.808594 81.34375 45.445312 81.644531 C 45.617188 81.726562 45.804688 81.765625 45.984375 81.765625 C 46.460938 81.765625 46.917969 81.496094 47.132812 81.03125 L 52.835938 68.84375 L 58.625 79.933594 C 59.246094 81.121094 60.464844 81.855469 61.800781 81.855469 L 76.4375 81.855469 C 78.410156 81.855469 80.015625 80.246094 80.015625 78.273438 L 80.015625 36.632812 C 80.015625 35.933594 79.449219 35.363281 78.746094 35.363281 Z M 28.355469 42.558594 C 28.355469 40.152344 30.3125 38.195312 32.71875 38.195312 C 35.125 38.195312 37.082031 40.152344 37.082031 42.558594 C 37.082031 44.964844 35.125 46.921875 32.71875 46.921875 C 30.3125 46.921875 28.355469 44.964844 28.355469 42.558594 Z M 48.402344 42.558594 C 48.402344 40.152344 50.359375 38.195312 52.765625 38.195312 C 55.171875 38.195312 57.128906 40.152344 57.128906 42.558594 C 57.128906 44.964844 55.171875 46.921875 52.765625 46.921875 C 50.359375 46.921875 48.402344 44.964844 48.402344 42.558594 Z M 48.402344 42.558594 "/><g clip-rule="nonzero" clip-path="url(#80ce6a39c5)"><path style=" stroke:none;fill-rule:nonzero;fill:#43754a;fill-opacity:1;" d="M 84.632812 32.511719 L 44.890625 1.300781 C 43.628906 0.304688 41.875 0.304688 40.609375 1.300781 L 0.875 32.511719 C 0.324219 32.941406 0.226562 33.742188 0.660156 34.296875 C 1.09375 34.847656 1.890625 34.945312 2.445312 34.511719 L 42.1875 3.300781 C 42.523438 3.042969 42.992188 3.042969 43.332031 3.300781 L 83.066406 34.503906 C 83.296875 34.691406 83.574219 34.773438 83.851562 34.773438 C 84.222656 34.773438 84.597656 34.609375 84.851562 34.289062 C 85.285156 33.734375 85.1875 32.9375 84.632812 32.503906 Z M 84.632812 32.511719 "/></g></g></svg>