<svg xmlns="http://www.w3.org/2000/svg" xmlns:xlink="http://www.w3.org/1999/xlink" width="1280" zoomAndPan="magnify" viewBox="0 0 960 299.999988" height="400" preserveAspectRatio="xMidYMid meet" version="1.0"><rect x="-96" width="1152" fill="#ffffff" y="-29.999999" height="359.999986" fill-opacity="1"/><rect x="-96" width="1152" fill="#ffffff" y="-29.999999" height="359.999986" fill-opacity="1"/><path fill="#43754a" d="M 366.082031 38.554688 L 365.269531 38.554688 C 363.457031 38.554688 362.039062 39.957031 362.039062 41.75 L 362.039062 177.476562 C 362.039062 179.269531 363.457031 180.671875 365.269531 180.671875 L 366.082031 180.671875 C 367.890625 180.671875 369.308594 179.269531 369.308594 177.476562 L 369.308594 41.75 C 369.308594 39.957031 367.890625 38.554688 366.082031 38.554688 " fill-opacity="1" fill-rule="nonzero"/><path fill="#43754a" d="M 441.246094 104.4375 L 441.246094 45.738281 L 478.953125 45.738281 C 502.179688 45.738281 516.046875 56.824219 516.046875 75.386719 C 516.046875 93.035156 501.644531 104.4375 479.359375 104.4375 Z M 480.773438 173.488281 L 441.246094 173.488281 L 441.246094 111.625 L 483.207031 111.625 C 506.910156 111.625 520.503906 122.574219 520.503906 141.664062 C 520.503906 160.699219 504.539062 173.488281 480.773438 173.488281 M 502.058594 107.097656 C 515.652344 101.195312 523.316406 89.902344 523.316406 75.386719 C 523.316406 52.667969 506.316406 38.554688 478.953125 38.554688 L 437.210938 38.554688 C 435.394531 38.554688 433.976562 39.960938 433.976562 41.75 L 433.976562 177.476562 C 433.976562 179.269531 435.394531 180.671875 437.210938 180.671875 L 480.773438 180.671875 C 508.449219 180.671875 527.777344 164.632812 527.777344 141.664062 C 527.777344 124.230469 518.703125 112.140625 502.058594 107.097656 " fill-opacity="1" fill-rule="nonzero"/><path fill="#43754a" d="M 560.628906 38.554688 L 559.816406 38.554688 C 558.007812 38.554688 556.585938 39.957031 556.585938 41.75 L 556.585938 177.476562 C 556.585938 179.269531 558.007812 180.671875 559.816406 180.671875 L 560.628906 180.671875 C 562.4375 180.671875 563.855469 179.269531 563.855469 177.476562 L 563.855469 41.75 C 563.855469 39.957031 562.4375 38.554688 560.628906 38.554688 " fill-opacity="1" fill-rule="nonzero"/><path fill="#43754a" d="M 714.164062 37.480469 C 713.753906 36.082031 712.484375 35.140625 711.007812 35.140625 L 711.003906 35.140625 C 709.527344 35.144531 708.261719 36.085938 707.867188 37.433594 L 666.210938 165.90625 L 623.992188 37.480469 C 623.554688 35.992188 622.128906 35.046875 620.507812 35.148438 C 619.015625 35.257812 617.871094 36.261719 617.636719 37.660156 L 587.851562 176.914062 C 587.433594 178.957031 588.089844 180.203125 589.804688 180.621094 L 591.296875 180.980469 C 592.027344 181.21875 592.765625 181.144531 593.386719 180.785156 C 594.128906 180.351562 594.617188 179.558594 594.84375 178.453125 L 621.597656 54.03125 L 663.066406 180.953125 C 663.480469 182.351562 664.746094 183.292969 666.222656 183.292969 C 667.703125 183.292969 668.96875 182.355469 669.367188 181 L 710.082031 54.007812 L 737.804688 178.429688 C 738.035156 179.558594 738.523438 180.351562 739.265625 180.785156 C 739.886719 181.148438 740.628906 181.214844 741.226562 181.019531 L 742.84375 180.621094 C 744.5625 180.203125 745.21875 178.957031 744.792969 176.886719 Z M 714.164062 37.480469 " fill-opacity="1" fill-rule="nonzero"/><path fill="#43754a" d="M 775.890625 111.625 L 817.851562 111.625 C 841.554688 111.625 855.148438 122.574219 855.148438 141.664062 C 855.148438 160.699219 839.183594 173.488281 815.417969 173.488281 L 775.890625 173.488281 Z M 775.890625 104.4375 L 775.890625 45.738281 L 813.59375 45.738281 C 836.824219 45.738281 850.691406 56.824219 850.691406 75.386719 C 850.691406 93.035156 836.289062 104.4375 814.003906 104.4375 Z M 836.703125 107.097656 C 850.296875 101.195312 857.960938 89.90625 857.960938 75.386719 C 857.960938 52.667969 840.960938 38.554688 813.59375 38.554688 L 771.851562 38.554688 C 770.039062 38.554688 768.621094 39.957031 768.621094 41.75 L 768.621094 177.476562 C 768.621094 179.269531 770.039062 180.671875 771.851562 180.671875 L 815.417969 180.671875 C 843.09375 180.671875 862.421875 164.632812 862.421875 141.664062 C 862.421875 124.234375 853.347656 112.144531 836.703125 107.097656 " fill-opacity="1" fill-rule="nonzero"/><path fill="#43754a" d="M 895.273438 38.554688 L 894.460938 38.554688 C 892.652344 38.554688 891.234375 39.957031 891.234375 41.75 L 891.234375 177.476562 C 891.234375 179.269531 892.652344 180.671875 894.460938 180.671875 L 895.273438 180.671875 C 897.082031 180.671875 898.5 179.269531 898.5 177.476562 L 898.5 41.75 C 898.5 39.957031 897.082031 38.554688 895.273438 38.554688 " fill-opacity="1" fill-rule="nonzero"/><path fill="#43754a" d="M 207.054688 156.449219 C 207.054688 149.597656 212.632812 144.019531 219.488281 144.019531 C 226.339844 144.019531 231.917969 149.597656 231.917969 156.449219 C 231.917969 163.304688 226.339844 168.882812 219.488281 168.882812 C 212.632812 168.882812 207.054688 163.304688 207.054688 156.449219 M 149.917969 156.449219 C 149.917969 149.597656 155.496094 144.019531 162.347656 144.019531 C 169.203125 144.019531 174.78125 149.597656 174.78125 156.449219 C 174.78125 163.304688 169.203125 168.882812 162.347656 168.882812 C 155.496094 168.882812 149.917969 163.304688 149.917969 156.449219 M 293.53125 135.992188 C 291.53125 135.992188 289.910156 137.613281 289.910156 139.613281 L 289.910156 258.296875 C 289.910156 259.925781 288.582031 261.253906 286.953125 261.253906 L 245.21875 261.253906 C 244.113281 261.253906 243.109375 260.644531 242.597656 259.664062 L 223.109375 222.359375 L 223.109375 188.96875 L 238.125 214.027344 C 238.804688 215.160156 240.003906 215.789062 241.234375 215.789062 C 241.871094 215.789062 242.511719 215.621094 243.09375 215.273438 C 244.8125 214.246094 245.367188 212.019531 244.339844 210.304688 L 223.59375 175.6875 C 232.476562 173.792969 239.160156 165.890625 239.160156 156.449219 C 239.160156 145.601562 230.335938 136.777344 219.488281 136.777344 C 208.636719 136.777344 199.8125 145.601562 199.8125 156.449219 C 199.8125 165.851562 206.441406 173.722656 215.273438 175.660156 L 193.277344 208.46875 C 192.714844 209.210938 191.855469 209.636719 190.921875 209.636719 C 189.984375 209.636719 189.128906 209.210938 188.6875 208.640625 L 166.566406 175.660156 C 175.394531 173.722656 182.023438 165.851562 182.023438 156.449219 C 182.023438 145.601562 173.199219 136.777344 162.347656 136.777344 C 151.503906 136.777344 142.675781 145.601562 142.675781 156.449219 C 142.675781 165.890625 149.359375 173.792969 158.242188 175.6875 L 137.496094 210.304688 C 136.464844 212.019531 137.023438 214.246094 138.742188 215.273438 C 139.324219 215.621094 139.964844 215.789062 140.601562 215.789062 C 141.832031 215.789062 143.03125 215.160156 143.710938 214.027344 L 158.726562 188.96875 L 158.726562 222.359375 L 139.238281 259.664062 C 138.726562 260.644531 137.722656 261.253906 136.617188 261.253906 L 94.972656 261.253906 C 93.335938 261.253906 92.011719 259.925781 92.011719 258.296875 L 92.011719 139.613281 C 92.011719 137.613281 90.390625 135.992188 88.386719 135.992188 C 86.386719 135.992188 84.769531 137.613281 84.769531 139.613281 L 84.769531 258.296875 C 84.769531 263.921875 89.34375 268.5 94.972656 268.5 L 136.617188 268.5 C 140.425781 268.5 143.894531 266.398438 145.660156 263.019531 L 162.167969 231.417969 L 178.414062 266.152344 C 179.03125 267.464844 180.335938 268.238281 181.699219 268.238281 C 182.210938 268.238281 182.738281 268.128906 183.230469 267.898438 C 185.042969 267.050781 185.824219 264.894531 184.976562 263.082031 L 165.972656 222.445312 L 165.972656 187.777344 L 182.792969 212.847656 C 184.738281 215.410156 187.699219 216.882812 190.921875 216.882812 C 194.140625 216.882812 197.105469 215.410156 199.171875 212.671875 L 215.863281 187.78125 L 215.863281 222.445312 L 196.859375 263.082031 C 196.011719 264.894531 196.792969 267.050781 198.605469 267.898438 C 199.101562 268.128906 199.621094 268.238281 200.136719 268.238281 C 201.5 268.238281 202.804688 267.464844 203.421875 266.152344 L 219.664062 231.414062 L 236.175781 263.019531 C 237.941406 266.398438 241.40625 268.5 245.21875 268.5 L 286.953125 268.5 C 292.578125 268.5 297.15625 263.921875 297.15625 258.296875 L 297.15625 139.613281 C 297.15625 137.613281 295.53125 135.992188 293.53125 135.992188 " fill-opacity="1" fill-rule="nonzero"/><path fill="#43754a" d="M 310.328125 127.800781 L 197.0625 38.851562 C 193.46875 36.03125 188.453125 36.03125 184.859375 38.851562 L 71.59375 127.800781 C 70.019531 129.035156 69.746094 131.3125 70.980469 132.886719 C 72.21875 134.457031 74.492188 134.730469 76.066406 133.496094 L 189.335938 44.550781 C 190.292969 43.800781 191.625 43.796875 192.585938 44.550781 L 305.851562 133.496094 C 306.515625 134.019531 307.304688 134.269531 308.089844 134.269531 C 309.164062 134.269531 310.226562 133.796875 310.941406 132.886719 C 312.175781 131.3125 311.902344 129.035156 310.328125 127.800781 " fill-opacity="1" fill-rule="nonzero"/><path fill="#7ba774" d="M 384.289062 239.5 C 384.289062 238.71875 384.921875 238.082031 385.707031 238.082031 L 411.878906 238.082031 L 411.878906 238.667969 C 411.878906 245.417969 409.457031 255.671875 403.292969 262.089844 C 397.121094 268.507812 390.039062 269.671875 383.453125 269.671875 C 376.785156 269.671875 369.617188 268.589844 363.117188 261.921875 C 359.863281 258.589844 354.945312 251.835938 354.945312 240.75 C 354.945312 231.664062 358.277344 224.414062 362.949219 219.660156 C 369.78125 212.578125 378.203125 211.578125 384.785156 211.578125 C 389.371094 211.578125 395.207031 212.324219 400.375 215.746094 C 403.65625 217.933594 406.558594 221.207031 408.570312 224.339844 C 409.023438 225.039062 408.796875 225.976562 408.0625 226.371094 L 399.027344 231.246094 C 398.371094 231.601562 397.539062 231.398438 397.15625 230.757812 C 396.097656 228.96875 394.65625 227.214844 392.871094 225.910156 C 390.371094 224.078125 387.539062 223.246094 384.371094 223.246094 C 379.285156 223.246094 375.535156 224.914062 372.867188 227.746094 C 369.78125 230.996094 368.117188 235.746094 368.117188 240.914062 C 368.117188 247.25 370.449219 251.335938 372.785156 253.671875 C 376.035156 257.003906 379.789062 258.003906 384.039062 258.003906 C 389.539062 258.003906 392.453125 256.085938 393.707031 255.003906 C 394.121094 254.667969 396.621094 252.503906 397.707031 248.417969 L 385.707031 248.417969 C 384.921875 248.417969 384.289062 247.785156 384.289062 247 Z M 384.289062 239.5 " fill-opacity="1" fill-rule="nonzero"/><path fill="#7ba774" d="M 471.796875 245.75 C 471.796875 251.085938 471.128906 257.671875 465.628906 263.339844 C 460.292969 268.839844 454.125 269.671875 448.292969 269.671875 C 442.457031 269.671875 436.285156 268.839844 430.949219 263.339844 C 425.449219 257.671875 424.785156 251.085938 424.785156 245.75 L 424.785156 214.246094 C 424.785156 213.460938 425.421875 212.824219 426.203125 212.824219 L 436.203125 212.824219 C 436.988281 212.824219 437.621094 213.460938 437.621094 214.246094 L 437.621094 245.417969 C 437.621094 247.835938 437.789062 251.917969 440.535156 254.753906 C 442.789062 257.167969 445.871094 257.671875 448.292969 257.671875 C 450.707031 257.671875 453.792969 257.167969 456.042969 254.753906 C 458.796875 251.917969 458.960938 247.835938 458.960938 245.417969 L 458.960938 214.246094 C 458.960938 213.460938 459.597656 212.824219 460.378906 212.824219 L 470.378906 212.824219 C 471.164062 212.824219 471.796875 213.460938 471.796875 214.246094 Z M 471.796875 245.75 " fill-opacity="1" fill-rule="nonzero"/><path fill="#7ba774" d="M 517.292969 223.660156 L 500.125 223.660156 L 500.125 234.414062 L 516.375 234.414062 C 517.160156 234.414062 517.796875 235.050781 517.796875 235.832031 L 517.796875 243.832031 C 517.796875 244.617188 517.160156 245.25 516.375 245.25 L 500.125 245.25 L 500.125 257.589844 L 517.292969 257.589844 C 518.078125 257.589844 518.714844 258.222656 518.714844 259.007812 L 518.714844 267.003906 C 518.714844 267.789062 518.078125 268.425781 517.292969 268.425781 L 488.707031 268.425781 C 487.925781 268.425781 487.289062 267.789062 487.289062 267.003906 L 487.289062 214.246094 C 487.289062 213.460938 487.925781 212.824219 488.707031 212.824219 L 517.292969 212.824219 C 518.078125 212.824219 518.714844 213.460938 518.714844 214.246094 L 518.714844 222.242188 C 518.714844 223.027344 518.078125 223.660156 517.292969 223.660156 " fill-opacity="1" fill-rule="nonzero"/><path fill="#7ba774" d="M 561.984375 225.027344 C 561.550781 225.730469 560.59375 225.925781 559.9375 225.417969 C 556.289062 222.617188 553.222656 222.414062 551.796875 222.414062 C 550.042969 222.414062 547.875 222.660156 546.378906 224.328125 C 545.542969 225.160156 544.957031 226.414062 544.957031 227.832031 C 544.957031 229.164062 545.378906 230.164062 546.210938 230.914062 C 547.542969 232.164062 549.464844 232.664062 553.210938 234.082031 L 557.378906 235.664062 C 559.796875 236.582031 562.796875 237.832031 564.964844 239.917969 C 568.214844 243 569.050781 247 569.050781 250.25 C 569.050781 256 567.046875 261.003906 564.128906 264.003906 C 559.214844 269.175781 552.046875 269.671875 548.378906 269.671875 C 544.378906 269.671875 540.875 269.089844 537.375 267.339844 C 534.933594 266.117188 532.179688 264.027344 530.132812 262.140625 C 529.597656 261.648438 529.507812 260.839844 529.9375 260.253906 L 534.925781 253.394531 C 535.425781 252.707031 536.398438 252.609375 537.027344 253.179688 C 538.335938 254.371094 539.90625 255.640625 541.042969 256.339844 C 543.210938 257.671875 545.460938 258.339844 548.042969 258.339844 C 549.710938 258.339844 552.046875 258.003906 553.878906 256.421875 C 554.964844 255.503906 555.878906 254.003906 555.878906 251.917969 C 555.878906 250.085938 555.128906 248.917969 553.964844 247.917969 C 552.460938 246.667969 549.042969 245.417969 547.460938 244.832031 L 542.875 243.25 C 540.292969 242.332031 537.292969 241.167969 535.125 238.832031 C 532.207031 235.75 531.789062 231.832031 531.789062 229.164062 C 531.789062 224.246094 533.289062 220.078125 536.625 216.660156 C 540.542969 212.660156 545.210938 211.574219 550.375 211.574219 C 553.996094 211.574219 559.695312 212.167969 565.789062 216.300781 C 566.410156 216.722656 566.574219 217.574219 566.179688 218.214844 Z M 561.984375 225.027344 " fill-opacity="1" fill-rule="nonzero"/><path fill="#7ba774" d="M 601.128906 223.660156 L 601.128906 267.003906 C 601.128906 267.789062 600.496094 268.425781 599.710938 268.425781 L 589.710938 268.425781 C 588.929688 268.425781 588.292969 267.789062 588.292969 267.003906 L 588.292969 223.660156 L 577.628906 223.660156 C 576.84375 223.660156 576.207031 223.027344 576.207031 222.242188 L 576.207031 214.246094 C 576.207031 213.460938 576.84375 212.824219 577.628906 212.824219 L 611.796875 212.824219 C 612.582031 212.824219 613.214844 213.460938 613.214844 214.246094 L 613.214844 222.242188 C 613.214844 223.027344 612.582031 223.660156 611.796875 223.660156 Z M 601.128906 223.660156 " fill-opacity="1" fill-rule="nonzero"/><path fill="#7ba774" d="M 636.132812 234 L 658.304688 234 L 658.304688 214.242188 C 658.304688 213.460938 658.9375 212.828125 659.722656 212.828125 L 669.722656 212.828125 C 670.503906 212.828125 671.140625 213.460938 671.140625 214.242188 L 671.140625 267.003906 C 671.140625 267.789062 670.503906 268.421875 669.722656 268.421875 L 659.722656 268.421875 C 658.9375 268.421875 658.304688 267.789062 658.304688 267.003906 L 658.304688 244.835938 L 636.132812 244.835938 L 636.132812 267.003906 C 636.132812 267.789062 635.496094 268.421875 634.714844 268.421875 L 624.710938 268.421875 C 623.929688 268.421875 623.296875 267.789062 623.296875 267.003906 L 623.296875 214.242188 C 623.296875 213.460938 623.929688 212.828125 624.710938 212.828125 L 634.714844 212.828125 C 635.496094 212.828125 636.132812 213.460938 636.132812 214.242188 Z M 636.132812 234 " fill-opacity="1" fill-rule="nonzero"/><path fill="#7ba774" d="M 702.136719 228.164062 C 699.71875 230.496094 697.21875 234.582031 697.21875 240.75 C 697.21875 245.835938 698.886719 249.917969 702.300781 253.253906 C 705.886719 256.671875 709.890625 257.839844 714.222656 257.839844 C 719.890625 257.839844 723.894531 255.753906 726.558594 253.085938 C 728.726562 251.003906 731.394531 247.085938 731.394531 240.667969 C 731.394531 234.914062 729.058594 230.664062 726.558594 228.164062 C 723.808594 225.496094 719.390625 223.414062 714.308594 223.414062 C 709.46875 223.414062 705.136719 225.160156 702.136719 228.164062 M 735.894531 219.660156 C 741.144531 224.746094 744.5625 232.082031 744.5625 240.667969 C 744.5625 248.082031 741.898438 255.671875 735.894531 261.503906 C 730.726562 266.507812 723.726562 269.671875 714.390625 269.671875 C 703.96875 269.671875 696.882812 265.503906 692.714844 261.503906 C 687.382812 256.503906 684.046875 249 684.046875 240.832031 C 684.046875 232.832031 687.632812 224.746094 692.632812 219.742188 C 696.386719 215.992188 703.304688 211.578125 714.390625 211.578125 C 723.058594 211.578125 730.308594 214.242188 735.894531 219.660156 " fill-opacity="1" fill-rule="nonzero"/><path fill="#7ba774" d="M 804.484375 245.75 C 804.484375 251.085938 803.816406 257.671875 798.316406 263.339844 C 792.980469 268.839844 786.808594 269.671875 780.976562 269.671875 C 775.140625 269.671875 768.972656 268.839844 763.636719 263.339844 C 758.136719 257.671875 757.472656 251.085938 757.472656 245.75 L 757.472656 214.246094 C 757.472656 213.460938 758.105469 212.824219 758.890625 212.824219 L 768.890625 212.824219 C 769.671875 212.824219 770.308594 213.460938 770.308594 214.246094 L 770.308594 245.417969 C 770.308594 247.835938 770.472656 251.917969 773.222656 254.753906 C 775.476562 257.167969 778.558594 257.671875 780.976562 257.671875 C 783.394531 257.671875 786.476562 257.167969 788.730469 254.753906 C 791.480469 251.917969 791.648438 247.835938 791.648438 245.417969 L 791.648438 214.246094 C 791.648438 213.460938 792.28125 212.824219 793.0625 212.824219 L 803.0625 212.824219 C 803.847656 212.824219 804.484375 213.460938 804.484375 214.246094 Z M 804.484375 245.75 " fill-opacity="1" fill-rule="nonzero"/><path fill="#7ba774" d="M 849.5 225.027344 C 849.066406 225.730469 848.109375 225.925781 847.453125 225.417969 C 843.804688 222.617188 840.738281 222.414062 839.308594 222.414062 C 837.558594 222.414062 835.390625 222.660156 833.890625 224.328125 C 833.058594 225.160156 832.472656 226.414062 832.472656 227.832031 C 832.472656 229.164062 832.894531 230.164062 833.726562 230.914062 C 835.058594 232.164062 836.976562 232.664062 840.726562 234.082031 L 844.894531 235.664062 C 847.3125 236.582031 850.3125 237.832031 852.480469 239.917969 C 855.730469 243 856.566406 247 856.566406 250.25 C 856.566406 256 854.5625 261.003906 851.644531 264.003906 C 846.730469 269.175781 839.5625 269.671875 835.894531 269.671875 C 831.890625 269.671875 828.390625 269.089844 824.890625 267.339844 C 822.445312 266.117188 819.695312 264.027344 817.648438 262.140625 C 817.113281 261.648438 817.023438 260.839844 817.449219 260.253906 L 822.441406 253.394531 C 822.9375 252.707031 823.914062 252.609375 824.539062 253.179688 C 825.851562 254.371094 827.421875 255.640625 828.558594 256.339844 C 830.726562 257.671875 832.976562 258.339844 835.558594 258.339844 C 837.226562 258.339844 839.5625 258.003906 841.394531 256.421875 C 842.480469 255.503906 843.394531 254.003906 843.394531 251.917969 C 843.394531 250.085938 842.644531 248.917969 841.476562 247.917969 C 839.976562 246.667969 836.558594 245.417969 834.976562 244.832031 L 830.390625 243.25 C 827.808594 242.332031 824.808594 241.167969 822.640625 238.832031 C 819.722656 235.75 819.304688 231.832031 819.304688 229.164062 C 819.304688 224.246094 820.804688 220.078125 824.140625 216.660156 C 828.058594 212.660156 832.726562 211.574219 837.890625 211.574219 C 841.511719 211.574219 847.210938 212.167969 853.300781 216.300781 C 853.925781 216.722656 854.089844 217.574219 853.695312 218.214844 Z M 849.5 225.027344 " fill-opacity="1" fill-rule="nonzero"/><path fill="#7ba774" d="M 899.148438 223.660156 L 881.980469 223.660156 L 881.980469 234.414062 L 898.230469 234.414062 C 899.015625 234.414062 899.648438 235.050781 899.648438 235.832031 L 899.648438 243.832031 C 899.648438 244.617188 899.015625 245.25 898.230469 245.25 L 881.980469 245.25 L 881.980469 257.589844 L 899.148438 257.589844 C 899.933594 257.589844 900.566406 258.222656 900.566406 259.007812 L 900.566406 267.003906 C 900.566406 267.789062 899.933594 268.425781 899.148438 268.425781 L 870.5625 268.425781 C 869.777344 268.425781 869.144531 267.789062 869.144531 267.003906 L 869.144531 214.246094 C 869.144531 213.460938 869.777344 212.824219 870.5625 212.824219 L 899.148438 212.824219 C 899.933594 212.824219 900.566406 213.460938 900.566406 214.246094 L 900.566406 222.242188 C 900.566406 223.027344 899.933594 223.660156 899.148438 223.660156 " fill-opacity="1" fill-rule="nonzero"/></svg>